<svg width="324" height="72" viewBox="0 0 324 72" fill="none" xmlns="http://www.w3.org/2000/svg">
<path d="M59.5781 11.5703H49.125V40H42.0938V11.5703H31.7812V5.875H59.5781V11.5703ZM71.2266 40.4688C67.5078 40.4688 64.4766 39.3281 62.1328 37.0469C59.8047 34.7656 58.6406 31.7266 58.6406 27.9297V27.2734C58.6406 24.7266 59.1328 22.4531 60.1172 20.4531C61.1016 18.4375 62.4922 16.8906 64.2891 15.8125C66.1016 14.7187 68.1641 14.1719 70.4766 14.1719C73.9453 14.1719 76.6719 15.2656 78.6562 17.4531C80.6562 19.6406 81.6562 22.7422 81.6562 26.7578V29.5234H65.5078C65.7266 31.1797 66.3828 32.5078 67.4766 33.5078C68.5859 34.5078 69.9844 35.0078 71.6719 35.0078C74.2812 35.0078 76.3203 34.0625 77.7891 32.1719L81.1172 35.8984C80.1016 37.3359 78.7266 38.4609 76.9922 39.2734C75.2578 40.0703 73.3359 40.4688 71.2266 40.4688ZM70.4531 19.6562C69.1094 19.6562 68.0156 20.1094 67.1719 21.0156C66.3438 21.9219 65.8125 23.2188 65.5781 24.9062H75V24.3672C74.9688 22.8672 74.5625 21.7109 73.7812 20.8984C73 20.0703 71.8906 19.6562 70.4531 19.6562ZM97.7578 32.9922C97.7578 32.1641 97.3438 31.5156 96.5156 31.0469C95.7031 30.5625 94.3906 30.1328 92.5781 29.7578C86.5469 28.4922 83.5312 25.9297 83.5312 22.0703C83.5312 19.8203 84.4609 17.9453 86.3203 16.4453C88.1953 14.9297 90.6406 14.1719 93.6562 14.1719C96.875 14.1719 99.4453 14.9297 101.367 16.4453C103.305 17.9609 104.273 19.9297 104.273 22.3516H97.5C97.5 21.3828 97.1875 20.5859 96.5625 19.9609C95.9375 19.3203 94.9609 19 93.6328 19C92.4922 19 91.6094 19.2578 90.9844 19.7734C90.3594 20.2891 90.0469 20.9453 90.0469 21.7422C90.0469 22.4922 90.3984 23.1016 91.1016 23.5703C91.8203 24.0234 93.0234 24.4219 94.7109 24.7656C96.3984 25.0938 97.8203 25.4688 98.9766 25.8906C102.555 27.2031 104.344 29.4766 104.344 32.7109C104.344 35.0234 103.352 36.8984 101.367 38.3359C99.3828 39.7578 96.8203 40.4688 93.6797 40.4688C91.5547 40.4688 89.6641 40.0938 88.0078 39.3438C86.3672 38.5781 85.0781 37.5391 84.1406 36.2266C83.2031 34.8984 82.7344 33.4688 82.7344 31.9375H89.1562C89.2188 33.1406 89.6641 34.0625 90.4922 34.7031C91.3203 35.3438 92.4297 35.6641 93.8203 35.6641C95.1172 35.6641 96.0938 35.4219 96.75 34.9375C97.4219 34.4375 97.7578 33.7891 97.7578 32.9922ZM115.336 8.40625V14.6406H119.672V19.6094H115.336V32.2656C115.336 33.2031 115.516 33.875 115.875 34.2812C116.234 34.6875 116.922 34.8906 117.938 34.8906C118.688 34.8906 119.352 34.8359 119.93 34.7266V39.8594C118.602 40.2656 117.234 40.4688 115.828 40.4688C111.078 40.4688 108.656 38.0703 108.562 33.2734V19.6094H104.859V14.6406H108.562V8.40625H115.336ZM129.094 40H122.297V14.6406H129.094V40ZM121.898 8.07812C121.898 7.0625 122.234 6.22656 122.906 5.57031C123.594 4.91406 124.523 4.58594 125.695 4.58594C126.852 4.58594 127.773 4.91406 128.461 5.57031C129.148 6.22656 129.492 7.0625 129.492 8.07812C129.492 9.10938 129.141 9.95312 128.438 10.6094C127.75 11.2656 126.836 11.5938 125.695 11.5938C124.555 11.5938 123.633 11.2656 122.93 10.6094C122.242 9.95312 121.898 9.10938 121.898 8.07812ZM139.547 14.6406L139.758 17.4766C141.555 15.2734 143.984 14.1719 147.047 14.1719C150.312 14.1719 152.555 15.4609 153.773 18.0391C155.555 15.4609 158.094 14.1719 161.391 14.1719C164.141 14.1719 166.188 14.9766 167.531 16.5859C168.875 18.1797 169.547 20.5859 169.547 23.8047V40H162.75V23.8281C162.75 22.3906 162.469 21.3438 161.906 20.6875C161.344 20.0156 160.352 19.6797 158.93 19.6797C156.898 19.6797 155.492 20.6484 154.711 22.5859L154.734 40H147.961V23.8516C147.961 22.3828 147.672 21.3203 147.094 20.6641C146.516 20.0078 145.531 19.6797 144.141 19.6797C142.219 19.6797 140.828 20.4766 139.969 22.0703V40H133.195V14.6406H139.547ZM172.219 27.0859C172.219 24.5703 172.703 22.3281 173.672 20.3594C174.641 18.3906 176.031 16.8672 177.844 15.7891C179.672 14.7109 181.789 14.1719 184.195 14.1719C187.617 14.1719 190.406 15.2188 192.562 17.3125C194.734 19.4062 195.945 22.25 196.195 25.8438L196.242 27.5781C196.242 31.4688 195.156 34.5938 192.984 36.9531C190.812 39.2969 187.898 40.4688 184.242 40.4688C180.586 40.4688 177.664 39.2969 175.477 36.9531C173.305 34.6094 172.219 31.4219 172.219 27.3906V27.0859ZM178.992 27.5781C178.992 29.9844 179.445 31.8281 180.352 33.1094C181.258 34.375 182.555 35.0078 184.242 35.0078C185.883 35.0078 187.164 34.3828 188.086 33.1328C189.008 31.8672 189.469 29.8516 189.469 27.0859C189.469 24.7266 189.008 22.8984 188.086 21.6016C187.164 20.3047 185.867 19.6562 184.195 19.6562C182.539 19.6562 181.258 20.3047 180.352 21.6016C179.445 22.8828 178.992 24.875 178.992 27.5781ZM205.148 14.6406L205.359 17.5703C207.172 15.3047 209.602 14.1719 212.648 14.1719C215.336 14.1719 217.336 14.9609 218.648 16.5391C219.961 18.1172 220.633 20.4766 220.664 23.6172V40H213.891V23.7812C213.891 22.3438 213.578 21.3047 212.953 20.6641C212.328 20.0078 211.289 19.6797 209.836 19.6797C207.93 19.6797 206.5 20.4922 205.547 22.1172V40H198.773V14.6406H205.148ZM231.469 40H224.672V14.6406H231.469V40ZM224.273 8.07812C224.273 7.0625 224.609 6.22656 225.281 5.57031C225.969 4.91406 226.898 4.58594 228.07 4.58594C229.227 4.58594 230.148 4.91406 230.836 5.57031C231.523 6.22656 231.867 7.0625 231.867 8.07812C231.867 9.10938 231.516 9.95312 230.812 10.6094C230.125 11.2656 229.211 11.5938 228.07 11.5938C226.93 11.5938 226.008 11.2656 225.305 10.6094C224.617 9.95312 224.273 9.10938 224.273 8.07812ZM250.266 40C249.953 39.3906 249.727 38.6328 249.586 37.7266C247.945 39.5547 245.812 40.4688 243.188 40.4688C240.703 40.4688 238.641 39.75 237 38.3125C235.375 36.875 234.562 35.0625 234.562 32.875C234.562 30.1875 235.555 28.125 237.539 26.6875C239.539 25.25 242.422 24.5234 246.188 24.5078H249.305V23.0547C249.305 21.8828 249 20.9453 248.391 20.2422C247.797 19.5391 246.852 19.1875 245.555 19.1875C244.414 19.1875 243.516 19.4609 242.859 20.0078C242.219 20.5547 241.898 21.3047 241.898 22.2578H235.125C235.125 20.7891 235.578 19.4297 236.484 18.1797C237.391 16.9297 238.672 15.9531 240.328 15.25C241.984 14.5312 243.844 14.1719 245.906 14.1719C249.031 14.1719 251.508 14.9609 253.336 16.5391C255.18 18.1016 256.102 20.3047 256.102 23.1484V34.1406C256.117 36.5469 256.453 38.3672 257.109 39.6016V40H250.266ZM244.664 35.2891C245.664 35.2891 246.586 35.0703 247.43 34.6328C248.273 34.1797 248.898 33.5781 249.305 32.8281V28.4688H246.773C243.383 28.4688 241.578 29.6406 241.359 31.9844L241.336 32.3828C241.336 33.2266 241.633 33.9219 242.227 34.4688C242.82 35.0156 243.633 35.2891 244.664 35.2891ZM266.953 40H260.156V4H266.953V40ZM284.789 32.9922C284.789 32.1641 284.375 31.5156 283.547 31.0469C282.734 30.5625 281.422 30.1328 279.609 29.7578C273.578 28.4922 270.562 25.9297 270.562 22.0703C270.562 19.8203 271.492 17.9453 273.352 16.4453C275.227 14.9297 277.672 14.1719 280.688 14.1719C283.906 14.1719 286.477 14.9297 288.398 16.4453C290.336 17.9609 291.305 19.9297 291.305 22.3516H284.531C284.531 21.3828 284.219 20.5859 283.594 19.9609C282.969 19.3203 281.992 19 280.664 19C279.523 19 278.641 19.2578 278.016 19.7734C277.391 20.2891 277.078 20.9453 277.078 21.7422C277.078 22.4922 277.43 23.1016 278.133 23.5703C278.852 24.0234 280.055 24.4219 281.742 24.7656C283.43 25.0938 284.852 25.4688 286.008 25.8906C289.586 27.2031 291.375 29.4766 291.375 32.7109C291.375 35.0234 290.383 36.8984 288.398 38.3359C286.414 39.7578 283.852 40.4688 280.711 40.4688C278.586 40.4688 276.695 40.0938 275.039 39.3438C273.398 38.5781 272.109 37.5391 271.172 36.2266C270.234 34.8984 269.766 33.4688 269.766 31.9375H276.188C276.25 33.1406 276.695 34.0625 277.523 34.7031C278.352 35.3438 279.461 35.6641 280.852 35.6641C282.148 35.6641 283.125 35.4219 283.781 34.9375C284.453 34.4375 284.789 33.7891 284.789 32.9922Z" fill="black"/>
<path fill-rule="evenodd" clip-rule="evenodd" d="M162 57.6932L152.357 63.6732L152 63.6851L155.063 54L157.137 54.2872L155.339 59.683L161.878 55.8053H162H162.122L164.155 57.011L163.442 58.5532L162 57.6932ZM162.065 67.0001L161.849 66.9998L158.588 60.3488L160.34 59.3069L161.98 62.7888L163.924 58.8434L163.922 58.8425L164.654 57.3071L168.661 59.683L166.863 54.2872L168.937 54L172 63.6851L171.643 63.6732L165.638 59.916L162.065 67.0001Z" fill="#0075FF"/>
</svg>
