<svg width="324" height="72" viewBox="0 0 324 72" fill="none" xmlns="http://www.w3.org/2000/svg">
<path d="M120.562 35.6875C119.297 37.2031 117.508 38.3828 115.195 39.2266C112.883 40.0547 110.32 40.4688 107.508 40.4688C104.555 40.4688 101.961 39.8281 99.7266 38.5469C97.5078 37.25 95.7891 35.375 94.5703 32.9219C93.3672 30.4688 92.75 27.5859 92.7188 24.2734V21.9531C92.7188 18.5469 93.2891 15.6016 94.4297 13.1172C95.5859 10.6172 97.2422 8.71094 99.3984 7.39844C101.57 6.07031 104.109 5.40625 107.016 5.40625C111.062 5.40625 114.227 6.375 116.508 8.3125C118.789 10.2344 120.141 13.0391 120.562 16.7266H113.719C113.406 14.7734 112.711 13.3438 111.633 12.4375C110.57 11.5312 109.102 11.0781 107.227 11.0781C104.836 11.0781 103.016 11.9766 101.766 13.7734C100.516 15.5703 99.8828 18.2422 99.8672 21.7891V23.9688C99.8672 27.5469 100.547 30.25 101.906 32.0781C103.266 33.9062 105.258 34.8203 107.883 34.8203C110.523 34.8203 112.406 34.2578 113.531 33.1328V27.25H107.133V22.0703H120.562V35.6875ZM139.031 40C138.719 39.3906 138.492 38.6328 138.352 37.7266C136.711 39.5547 134.578 40.4688 131.953 40.4688C129.469 40.4688 127.406 39.75 125.766 38.3125C124.141 36.875 123.328 35.0625 123.328 32.875C123.328 30.1875 124.32 28.125 126.305 26.6875C128.305 25.25 131.188 24.5234 134.953 24.5078H138.07V23.0547C138.07 21.8828 137.766 20.9453 137.156 20.2422C136.562 19.5391 135.617 19.1875 134.32 19.1875C133.18 19.1875 132.281 19.4609 131.625 20.0078C130.984 20.5547 130.664 21.3047 130.664 22.2578H123.891C123.891 20.7891 124.344 19.4297 125.25 18.1797C126.156 16.9297 127.438 15.9531 129.094 15.25C130.75 14.5312 132.609 14.1719 134.672 14.1719C137.797 14.1719 140.273 14.9609 142.102 16.5391C143.945 18.1016 144.867 20.3047 144.867 23.1484V34.1406C144.883 36.5469 145.219 38.3672 145.875 39.6016V40H139.031ZM133.43 35.2891C134.43 35.2891 135.352 35.0703 136.195 34.6328C137.039 34.1797 137.664 33.5781 138.07 32.8281V28.4688H135.539C132.148 28.4688 130.344 29.6406 130.125 31.9844L130.102 32.3828C130.102 33.2266 130.398 33.9219 130.992 34.4688C131.586 35.0156 132.398 35.2891 133.43 35.2891ZM155.719 40H148.922V4H155.719V40ZM166.969 40H160.172V4H166.969V40ZM182.742 40.4688C179.023 40.4688 175.992 39.3281 173.648 37.0469C171.32 34.7656 170.156 31.7266 170.156 27.9297V27.2734C170.156 24.7266 170.648 22.4531 171.633 20.4531C172.617 18.4375 174.008 16.8906 175.805 15.8125C177.617 14.7187 179.68 14.1719 181.992 14.1719C185.461 14.1719 188.188 15.2656 190.172 17.4531C192.172 19.6406 193.172 22.7422 193.172 26.7578V29.5234H177.023C177.242 31.1797 177.898 32.5078 178.992 33.5078C180.102 34.5078 181.5 35.0078 183.188 35.0078C185.797 35.0078 187.836 34.0625 189.305 32.1719L192.633 35.8984C191.617 37.3359 190.242 38.4609 188.508 39.2734C186.773 40.0703 184.852 40.4688 182.742 40.4688ZM181.969 19.6562C180.625 19.6562 179.531 20.1094 178.688 21.0156C177.859 21.9219 177.328 23.2188 177.094 24.9062H186.516V24.3672C186.484 22.8672 186.078 21.7109 185.297 20.8984C184.516 20.0703 183.406 19.6562 181.969 19.6562ZM209.789 20.9922C208.867 20.8672 208.055 20.8047 207.352 20.8047C204.789 20.8047 203.109 21.6719 202.312 23.4062V40H195.539V14.6406H201.938L202.125 17.6641C203.484 15.3359 205.367 14.1719 207.773 14.1719C208.523 14.1719 209.227 14.2734 209.883 14.4766L209.789 20.9922ZM221.461 30.4141L226.148 14.6406H233.414L223.219 43.9375L222.656 45.2734C221.141 48.5859 218.641 50.2422 215.156 50.2422C214.172 50.2422 213.172 50.0938 212.156 49.7969V44.6641L213.188 44.6875C214.469 44.6875 215.422 44.4922 216.047 44.1016C216.688 43.7109 217.188 43.0625 217.547 42.1562L218.344 40.0703L209.461 14.6406H216.75L221.461 30.4141Z" fill="black"/>
<path fill-rule="evenodd" clip-rule="evenodd" d="M162 57.6932L152.357 63.6732L152 63.6851L155.063 54L157.137 54.2872L155.339 59.683L161.878 55.8053H162H162.122L164.155 57.011L163.442 58.5532L162 57.6932ZM162.065 67.0001L161.849 66.9998L158.588 60.3488L160.34 59.3069L161.98 62.7888L163.924 58.8434L163.922 58.8425L164.654 57.3071L168.661 59.683L166.863 54.2872L168.937 54L172 63.6851L171.643 63.6732L165.638 59.916L162.065 67.0001Z" fill="#0075FF"/>
</svg>
